<svg xmlns="http://www.w3.org/2000/svg" width="36" viewBox="0 0 36 36">
    <g fill="none">
        <path stroke="#222" stroke-width="2" d="M8.014 19H2.636C1.733 19 1 18.349 1 17.545V4.455C1 3.65 1.733 3 2.636 3h14.728C18.267 3 19 3.651 19 4.455v5.656" transform="translate(6 6)"/>
        <g>
            <path fill="#222" d="M1.222 4.996H10c.552 0 1-.448 1-1s-.448-1-1-1H1c-.552 0-1 .448-1 1s.448 1 1 1h.222z" transform="translate(6 6) translate(12 14)"/>
            <path stroke="#222" stroke-width="2" d="M11 8L7 4 11 0" transform="translate(6 6) translate(12 14) matrix(-1 0 0 1 18 0)"/>
        </g>
    </g>
</svg>
