<svg xmlns="http://www.w3.org/2000/svg" width="36" viewBox="0 0 36 36">
    <g fill="none">
        <path stroke="#222" stroke-width="2" d="M7.014 16H1.636C.733 16 0 15.349 0 14.545V1.455C0 .65.733 0 1.636 0h14.728C17.267 0 18 .651 18 1.455V8" transform="translate(7 7)"/>
        <path fill="#222" d="M17.085 15.996l.044-3.686.005-.406v-.011c.013-.506.433-.905.939-.893.514.013.922.437.916.951l-.005.406-.044 3.64H22.997c.554 0 1.003.449 1.003 1.003 0 .554-.45 1.004-1.004 1.004h-4.08l-.045 3.686-.005.406v.011c-.013.506-.433.905-.939.893-.514-.013-.922-.437-.916-.951l.005-.406.044-3.64H13.003C12.45 18.004 12 17.555 12 17c0-.554.45-1.004 1.004-1.004h4.08z" transform="translate(7 7)"/>
    </g>
</svg>
