<svg width="36" viewBox="0 0 36 36" fill="none" xmlns="http://www.w3.org/2000/svg">
    <path fill="#222" class="invertible-fill" d="M15.047 9C14.353 9 13.781 9.554 13.781 10.227V12.273H12.516C11.822 12.273 11.25 12.827 11.25 13.5V25.773C11.25 26.446 11.822 27 12.516 27H20.953C21.647 27 22.219 26.446 22.219 25.773V23.727H23.484C24.178 23.727 24.75 23.173 24.75 22.5V13.09C24.75 12.983 24.704 12.88 24.625 12.803L20.828 9.121C20.749 9.045 20.643 9.001 20.531 9H15.047V9ZM15.047 9.818H20.109V13.091C20.109 13.317 20.299 13.5 20.531 13.5H23.906V22.5C23.906 22.734 23.726 22.91 23.484 22.91H15.047C14.806 22.91 14.625 22.734 14.625 22.5V10.227C14.625 9.994 14.805 9.818 15.047 9.818V9.818ZM20.953 10.393L23.313 12.682H20.953V10.393ZM12.516 13.091H13.781V22.5C13.781 23.173 14.353 23.727 15.047 23.727H21.375V25.773C21.375 26.006 21.195 26.182 20.953 26.182H12.516C12.275 26.182 12.094 26.006 12.094 25.772V13.5C12.094 13.266 12.274 13.09 12.516 13.09V13.091Z" />
</svg>
