<svg width="36" height="36" viewBox="0 0 36 36" fill="none" xmlns="http://www.w3.org/2000/svg">
<path d="M35.3 18C35.3 27.5545 27.5545 35.3 18 35.3C8.44548 35.3 0.7 27.5545 0.7 18C0.7 8.44548 8.44548 0.7 18 0.7C27.5545 0.7 35.3 8.44548 35.3 18Z" stroke="#EE4648" stroke-width="1.4"/>
<path d="M20.1769 25.5241C20.1769 24.2763 19.2691 23.2749 17.9891 23.2749C16.7309 23.2749 15.8231 24.2763 15.8231 25.5241C15.8231 26.7923 16.7309 27.7959 17.9891 27.7959C19.2691 27.7959 20.1769 26.7923 20.1769 25.5241ZM16.548 20.2594H19.452L19.7415 11.2174V8.2041H16.2585V11.2174L16.548 20.2594Z" fill="#EE4648"/>
</svg>
