<svg width="16" viewBox="0 0 16 16" fill="none" xmlns="http://www.w3.org/2000/svg">
<g stroke="#EE4648" class="adjustable-stroke">
<path d="M7.99999 15.35C12.0593 15.35 15.35 12.0593 15.35 8.00002C15.35 3.94073 12.0593 0.650024 7.99999 0.650024C3.9407 0.650024 0.649994 3.94073 0.649994 8.00002C0.649994 12.0593 3.9407 15.35 7.99999 15.35Z" stroke-width="1.3"/>
<path d="M7.995 11.167C8.3016 11.167 8.5 11.3809 8.5 11.662C8.5 11.9558 8.29803 12.167 7.995 12.167C7.70526 12.167 7.5 11.9591 7.5 11.662C7.5 11.3775 7.7017 11.167 7.995 11.167ZM8.3 5.32469L8.18335 8.833H7.81665L7.7 5.32469V4.5H8.3V5.32469Z" />
</g>
</svg>
