<svg xmlns="http://www.w3.org/2000/svg" width="56" viewBox="0 0 56 56">
    <g fill="none" stroke="#272727">
        <circle cx="28" cy="28" r="27" stroke-width="2"/>
        <rect width="28" height="1.75" x="14" y="38" fill="#272727" stroke-width=".4" rx=".875"/>
        <path fill="#272727" stroke-width=".8" d="M18 22.976l4.286-4.39c.308-.316.813-.322 1.129-.014l.014.013h0c.317.326.317.846 0 1.171l-4.286 4.39 4 4.098c.318.325.318.845 0 1.17h0c-.308.316-.814.322-1.13.014L22 29.415l-4-4.098-4 4.098c-.308.315-.814.321-1.13.013l-.013-.013h0c-.318-.326-.318-.846 0-1.171l4-4.098-4.286-4.39c-.317-.325-.317-.845 0-1.17h0c.309-.316.814-.322 1.13-.014l.013.013L18 22.975zM38 22.976l4.286-4.39c.308-.316.813-.322 1.129-.014l.014.013h0c.317.326.317.846 0 1.171l-4.286 4.39 4 4.098c.318.325.318.845 0 1.17h0c-.308.316-.814.322-1.13.014L42 29.415l-4-4.098-4 4.098c-.308.315-.814.321-1.13.013l-.013-.013h0c-.318-.326-.318-.846 0-1.171l4-4.098-4.286-4.39c-.317-.325-.317-.845 0-1.17h0c.309-.316.814-.322 1.13-.014l.013.013L38 22.975z"/>
    </g>
</svg>
