<svg width="36" viewBox="0 0 36 36" fill="none" xmlns="http://www.w3.org/2000/svg">
    <g stroke="#222" class="invertible-stroke" transform="translate(6 6)">
        <path d="M11 3H4.636C3.733 3 3 3.733 3 4.636V19.364C3 20.267 3.733 21 4.636 21H19.364C20.267 21 21 20.267 21 19.364V12" stroke-width="2"/>
        <path d="M19.8956 3.29655L19.8963 3.29579L20.1281 3.063C20.1283 3.06283 20.1284 3.06267 20.1286 3.0625C20.3253 2.86681 20.6447 2.86682 20.8414 3.06252C21.0386 3.26064 21.0378 3.57909 20.8414 3.77544L20.6084 4.00844L14.0084 10.6084L14.362 10.962L14.0077 10.6092L13.7769 10.841C13.7767 10.8412 13.7766 10.8413 13.7764 10.8415C13.5783 11.0386 13.2599 11.0378 13.0636 10.8414C12.8668 10.6447 12.8668 10.3253 13.0636 10.1285L13.2956 9.89654L19.8956 3.29655Z" />
        <path d="M21 9V3H15" stroke-width="2"/>
    </g>
</svg>

