<svg width="36" height="36" viewBox="0 0 36 36" fill="none" xmlns="http://www.w3.org/2000/svg">
    <path d="M20.543 9.82099C21.69 9.83499 22.788 10.289 23.613 11.089C24.159 11.68 25.029 12.779 24.646 14.898C24.434 15.781 23.941 16.571 23.241 17.148L25.426 19.339C26.54 18.339 27.61 16.859 27.876 15.19C28.062 14.073 28.266 12.268 26.653 9.84299C25.626 8.31699 23.58 7.33799 22.717 7.08599C21.307 6.73799 19.834 6.72399 18.417 7.04599C17.154 7.37799 15.998 8.02999 15.06 8.93999L17.354 11.24C17.98 10.462 18.981 9.86299 20.544 9.82199L20.543 9.82099Z" fill="url(#paint0_radial)"/>
    <path d="M25.426 19.339L23.241 17.148C22.969 17.393 22.676 17.615 22.367 17.812C21.592 18.309 20.39 18.777 18.679 19.449L15.683 20.599L15.082 20.822C13.444 21.435 10.712 22.462 9.257 24.382C8.377 25.603 7.87 27.052 7.8 28.554V28.638H11.033V28.565C11.086 27.704 11.372 26.873 11.86 26.162C12.76 24.972 15.038 24.121 16.269 23.661L17.274 23.295L20.27 22.141C21.524 21.645 22.746 21.071 23.93 20.421C24.466 20.117 24.968 19.755 25.426 19.34V19.339Z" fill="#1A1B1B"/>
    <path d="M21.228 23.784C20.98 23.334 20.652 22.768 20.278 22.129L18.679 19.449C18.468 19.083 16.76 16.874 16.444 14.609C16.3 13.413 16.621 12.208 17.339 11.242L15.06 8.94199C13.414 10.598 12.996 12.87 13.207 14.93C13.505 17.87 15.555 20.353 15.697 20.594L17.277 23.279C17.722 24.031 18.107 24.696 18.37 25.199C18.978 26.215 19.318 27.369 19.356 28.552V28.632H22.564V28.552C22.533 26.874 22.073 25.232 21.228 23.782V23.784Z" fill="url(#paint1_linear)"/>
    <defs>
        <radialGradient id="paint0_radial" cx="0" cy="0" r="1" gradientUnits="userSpaceOnUse" gradientTransform="translate(7.93773 20.28) rotate(90) scale(12.9401 12.1229)">
        <stop stop-color="#FF62B6"/>
        <stop offset="1" stop-color="#FF337F"/>
        </radialGradient>
        <linearGradient id="paint1_linear" x1="12.2932" y1="6.80208" x2="28.3302" y2="15.1343" gradientUnits="userSpaceOnUse">
        <stop offset="0.67" stop-color="#333333"/>
        <stop offset="0.82" stop-color="#1A1B1B"/>
        </linearGradient>
    </defs>
</svg>
