<svg width="36" viewBox="0 0 36 36" fill="none" xmlns="http://www.w3.org/2000/svg">
  <g stroke="#C3C3C3" stroke-width="2">
    <path d="M16.267 24C18.1078 24 19.6 22.5078 19.6 20.667C19.6 18.8262 18.1078 17.334 16.267 17.334C14.4262 17.334 12.934 18.8262 12.934 20.667C12.934 22.5078 14.4262 24 16.267 24Z" />
    <path d="M24.4 25.467C25.2836 25.467 26 24.7507 26 23.867C26 22.9833 25.2836 22.267 24.4 22.267C23.5163 22.267 22.8 22.9833 22.8 23.867C22.8 24.7507 23.5163 25.467 24.4 25.467Z" />
    <path d="M23.867 14.266C25.045 14.266 26 13.311 26 12.133C26 10.955 25.045 10 23.867 10C22.689 10 21.734 10.955 21.734 12.133C21.734 13.311 22.689 14.266 23.867 14.266Z" stroke="#C3C3C3" />
    <path d="M12.133 15.333C13.311 15.333 14.266 14.378 14.266 13.2C14.266 12.022 13.311 11.067 12.133 11.067C10.955 11.067 10 12.022 10 13.2C10 14.378 10.955 15.333 12.133 15.333Z" />
    <path d="M19.333 22L22.667 23.333M18.667 18L22.267 13.733L18.667 18ZM14 17.333L13.067 15.333L14 17.333Z" stroke-linecap="square"/>
  </g>
</svg>
