<svg width="32" viewBox="0 0 32 32" fill="none" xmlns="http://www.w3.org/2000/svg">
    <g stroke="#222222" class="active-remove-opacity" opacity="0.5">
        <path d="M23.192 24.769C18.488 29.17 11.105 29.075 6.515 24.485C1.828 19.799 1.828 12.201 6.515 7.515C11.105 2.92499 18.488 2.831 23.192 7.23" stroke-width="2"/>
        <path d="M15.5 16.5V15.5H28.5V16.5H15.5Z" />
        <path d="M28.7539 16.3472L29.6053 15.494H28.6059L25.8726 12.7655C25.8725 12.7654 25.8725 12.7654 25.8724 12.7653C25.7268 12.6196 25.7258 12.382 25.8728 12.2343C26.0189 12.0884 26.2562 12.0883 26.4024 12.2346L26.4027 12.2348L30.1661 15.9927L26.403 19.7649L26.4029 19.765C26.2569 19.9115 26.0198 19.9117 25.8736 19.7654L25.873 19.7649C25.7272 19.6195 25.7264 19.3819 25.8723 19.2348C25.8724 19.2347 25.8725 19.2346 25.8726 19.2345L28.7539 16.3472Z" />
    </g>
</svg>
