<svg xmlns="http://www.w3.org/2000/svg" width="36" viewBox="0 0 36 36">
    <g fill="none">
        <path fill="#FFF" fill-opacity="0" d="M0 0H36V36H0z"/>
        <path stroke="#222" stroke-width="2" d="M26.516 10.387c-3.046-.12-5.962-1.28-8.193-3.263-.19-.165-.492-.166-.674-.007-2.274 2.025-5.195 3.19-8.162 3.27-.292.014-.487.211-.487.474v11.078c0 .09.011.148.023.18 1.433 3.194 4.195 5.564 7.594 6.511.33.09 1.058.301 1.058.302.192.053.272.068.32.068.1 0-.287.113 1.39-.408 3.4-.913 6.157-3.28 7.576-6.474.022-.054.039-.147.039-.216V10.861c0-.262-.194-.46-.484-.474zm0 0h-.003.006-.003z"/>
    </g>
</svg>
