<svg xmlns="http://www.w3.org/2000/svg" width="24" viewBox="0 0 24 24">
    <g fill="none" fill-rule="nonzero">
        <path d="M0 0h24v24H0z"/>
        <circle cx="12" cy="12" r="12" fill="#222" fill-opacity=".1"/>
        <g fill="#222" opacity=".65">
            <path d="M6.004 13.107c.432 2.938 2.961 5.203 6.017 5.203a6.1 6.1 0 0 0 5.316-3.117l-1.18-.661a4.747 4.747 0 0 1-4.135 2.425 4.742 4.742 0 0 1-4.605-3.648l.743.744.956-.956-2.507-2.508L4.1 13.097l.957.956.946-.946zM18.033 11.3c-.446-2.92-2.968-5.167-6.012-5.167a6.113 6.113 0 0 0-5.273 3.043l1.17.678a4.756 4.756 0 0 1 4.103-2.368 4.742 4.742 0 0 1 4.62 3.706l-.801-.8-.956.956 2.507 2.508 2.508-2.508-.957-.957-.91.91z"/>
        </g>
    </g>
</svg>
