<svg width="17" viewBox="0 0 17 10" fill="none" xmlns="http://www.w3.org/2000/svg">
<path d="M4.17699 0.490012V2.23601C4.17699 2.39701 4.30499 2.52701 4.46399 2.52701H6.18499C6.34399 2.52701 6.47199 2.39701 6.47199 2.23701V1.65501H8.09899C8.56199 1.65501 8.97899 1.93701 9.15699 2.37001L10.058 4.56401H1.83799L2.63599 3.91801C2.70399 3.86201 2.74299 3.77801 2.74199 3.69101C2.74199 3.62401 2.71999 3.56001 2.67899 3.50801C2.57899 3.38401 2.40099 3.36401 2.27799 3.46401L0.842988 4.62801L0.819988 4.65001V4.67001L0.799988 4.70501V4.96501C0.804988 4.97701 0.811988 4.98801 0.819988 4.99701V5.02001L0.842988 5.04401L2.27799 6.20701C2.40099 6.30701 2.58099 6.28501 2.67899 6.16101C2.71299 6.12001 2.73399 6.07101 2.74199 6.01801C2.74199 5.93001 2.70399 5.84701 2.63599 5.79101L1.83899 5.14501H12.066L11.166 7.33901C10.987 7.77201 10.57 8.05401 10.107 8.05401H8.45199C8.30399 7.32301 7.63499 6.82401 6.90199 6.89801C6.16899 6.97301 5.61199 7.59801 5.61199 8.34501C5.61199 9.09201 6.16899 9.71801 6.90199 9.79301C7.63499 9.86801 8.30399 9.36801 8.45199 8.63601H10.107C10.802 8.63601 11.429 8.21301 11.697 7.56301L12.689 5.14501H13.96C14.107 5.87701 14.777 6.37701 15.51 6.30201C16.242 6.22701 16.8 5.60201 16.8 4.85501C16.8 4.10801 16.242 3.48201 15.51 3.40701C14.777 3.33201 14.107 3.83201 13.96 4.56401H10.681L9.68799 2.14601C9.42099 1.49601 8.79399 1.07201 8.09799 1.07301H6.47299V0.490012C6.47199 0.330012 6.34399 0.200012 6.18499 0.200012H4.46399C4.30499 0.200012 4.17699 0.330012 4.17699 0.490012V0.490012ZM7.04599 9.21801C6.56999 9.21801 6.18599 8.82801 6.18599 8.34501C6.18599 7.86301 6.56999 7.47301 7.04599 7.47301C7.52099 7.47301 7.90599 7.86301 7.90599 8.34501C7.90599 8.82701 7.52099 9.21801 7.04599 9.21801ZM15.366 3.98201C15.841 3.98201 16.226 4.37201 16.226 4.85501C16.226 5.33601 15.841 5.72701 15.366 5.72701C14.89 5.72701 14.506 5.33701 14.506 4.85501C14.506 4.37301 14.89 3.98201 15.366 3.98201ZM5.89799 0.782012V1.94501H4.75099V0.782012H5.89799V0.782012Z" fill="white" stroke="white" stroke-width="0.3"/>
</svg>
