<svg width="20" height="20" viewBox="0 0 20 20" fill="none" xmlns="http://www.w3.org/2000/svg">
<g fill="#C4C4C4" class="hover-darken">
<path fill-rule="evenodd" clip-rule="evenodd" d="M7.01898 15.663C7.95195 15.8813 8.95518 16 10 16C14.9706 16 19 13.3137 19 10C19 8.0627 17.6228 6.33984 15.4854 5.24285L13.5005 7.6858C13.9141 8.33156 14.1539 9.09931 14.1539 9.92308C14.1539 12.2172 12.2941 14.0769 10 14.0769C9.48105 14.0769 8.9843 13.9818 8.52628 13.8079L7.01898 15.663ZM9.55644 12.54C9.70069 12.5643 9.84888 12.5769 10 12.5769C11.4657 12.5769 12.6539 11.3888 12.6539 9.92308C12.6539 9.58068 12.589 9.25343 12.471 8.95293L9.55644 12.54ZM11.5186 7.74636L8.1804 11.8549C7.6668 11.3709 7.34618 10.6845 7.34618 9.92308C7.34618 8.4574 8.53435 7.26923 10 7.26923C10.5648 7.26923 11.0883 7.44564 11.5186 7.74636ZM12.4661 6.58017C11.7764 6.07053 10.9234 5.76923 10 5.76923C7.70592 5.76923 5.84618 7.62897 5.84618 9.92308C5.84618 11.1543 6.38186 12.2604 7.23287 13.0211L5.47314 15.1869C2.79785 14.147 1 12.2134 1 10C1 6.68629 5.02944 4 10 4C11.4543 4 12.828 4.22996 14.0439 4.63831L12.4661 6.58017Z" />
<path fill-rule="evenodd" clip-rule="evenodd" d="M2.00001 17L15 1L16.1642 1.94589L3.16418 17.9459L2.00001 17Z" />
</g>
</svg>
