<svg width="20" height="20" viewBox="0 0 20 20" fill="none" xmlns="http://www.w3.org/2000/svg">

<path fill="#C4C4C4" class="hover-darken" fill-rule="evenodd" clip-rule="evenodd" d="M10 16C14.9706 16 19 13.3137 19 10C19 6.68629 14.9706 4 10 4C5.02944 4 1 6.68629 1 10C1 13.3137 5.02944 16 10 16ZM12.6539 9.92308C12.6539 11.3888 11.4657 12.5769 10 12.5769C8.53435 12.5769 7.34618 11.3888 7.34618 9.92308C7.34618 8.4574 8.53435 7.26923 10 7.26923C11.4657 7.26923 12.6539 8.4574 12.6539 9.92308ZM14.1539 9.92308C14.1539 12.2172 12.2941 14.0769 10 14.0769C7.70592 14.0769 5.84618 12.2172 5.84618 9.92308C5.84618 7.62897 7.70592 5.76923 10 5.76923C12.2941 5.76923 14.1539 7.62897 14.1539 9.92308Z" />

</svg>
